C:\GBW_MyPrograms\KinderuniversiteitApp\Resultaten\TymenKool\Model1_v3.mot
version=1
nRows=7
nColumns=31
inDegrees=yes
endheader
                time	         pelvis_tilt	           pelvis_tx	           pelvis_ty	       hip_flexion_r	        knee_angle_r	       ankle_angle_r	       hip_flexion_l	        knee_angle_l	       ankle_angle_l	    lumbar_extension	          arm_flex_r	          arm_flex_l	hamstrings_r/activation	bifemsh_r/activation	glut_max_r/activation	iliopsoas_r/activation	rect_fem_r/activation	  vasti_r/activation	gastroc_r/activation	 soleus_r/activation	tib_ant_r/activation	hamstrings_l/activation	bifemsh_l/activation	glut_max_l/activation	iliopsoas_l/activation	rect_fem_l/activation	  vasti_l/activation	gastroc_l/activation	 soleus_l/activation	tib_ant_l/activation	
          0.74769241	         -0.45400236	          0.94490416	          1.11833646	         55.45774848	        -80.08505310	         -8.27123832	        -19.54457720	          7.87153186	         -2.40987256	        -13.23578075	          3.89662294	          3.89593327	          0.40665523	          0.96146460	          0.07658361	          0.54442234	          0.87188448	          0.09717630	          0.11952773	          0.12110203	          0.35776052	          0.41609694	          0.76997999	          0.12348908	          0.81164036	          0.49958311	          0.39833530	          0.52720511	          0.55295171	          0.71090656	
          0.76264625	          0.50943863	          0.96457565	          1.09922032	         51.56438619	        -71.75793102	         -9.30370089	        -19.64587820	          3.36895617	          3.72382222	        -14.29738447	          2.27558376	          2.27469674	          0.32544367	          0.97415801	          0.06220087	          0.57041542	          0.93311536	          0.07827814	          0.09749338	          0.09744617	          0.28961557	          0.61381025	          0.88424201	          0.09926847	          0.90495576	          0.40006813	          0.31926094	          0.76291846	          0.77672860	          0.56888239	
          0.77760010	          1.31261846	          0.98641710	          1.08181491	         47.59463182	        -64.16910286	        -10.50252956	        -20.73744642	          0.93107562	          8.10727935	        -15.04525828	          0.06613878	          0.06506357	          0.34091100	          0.95442859	          0.06398733	          0.45757332	          0.94122583	          0.06296558	          0.07926664	          0.07841715	          0.23390893	          0.65046519	          0.94127517	          0.08007812	          0.95186752	          0.32064231	          0.25609726	          0.88087838	          0.67113926	          0.45528441	
          0.79255395	          1.96194784	          1.01045814	          1.06724840	         43.57934620	        -57.37722274	        -10.77619096	        -22.29010384	         -0.49595420	         11.33979945	        -15.51085372	         -2.69922893	         -2.70047881	          0.43774774	          0.77267821	          0.05111296	          0.36729797	          0.75420407	          0.05039031	          0.06418522	          0.06285186	          0.55953510	          0.70622344	          0.96838125	          0.06554590	          0.97536757	          0.25703906	          0.20566802	          0.84657631	          0.53921171	          0.36497434	
          0.80750780	          2.48849495	          1.03680421	          1.05595115	         39.44358051	        -51.81528102	         -7.35850792	        -23.47126451	         -2.50131339	         13.70942619	        -15.69068685	         -5.99282530	         -5.99423314	          0.42722833	          0.61936291	          0.05109812	          0.29453698	          0.60380844	          0.05122753	          0.05090667	          0.05005696	          0.44786663	          0.58187732	          0.77620671	          0.05619446	          0.78138384	          0.20602238	          0.16548622	          0.67879148	          0.43264518	          0.29137790	
          0.82246165	          2.98764657	          1.06436657	          1.04764085	         35.72204915	        -49.93423297	         -1.06450607	        -23.69010670	         -6.25789380	         15.50086223	        -15.78292480	         -9.63337726	         -9.63492647	          0.34181554	          0.49654871	          0.52288663	          0.23715076	          0.52888445	          0.52354833	          0.09273101	          0.37619237	          0.35793927	          0.46546390	          0.62213805	          0.31361335	          0.62604893	          0.16560200	          0.13319925	          0.54411381	          0.34626640	          0.23186324	
          0.83741549	          3.27175994	          1.09104298	          1.04253398	         33.01670058	        -49.59800359	          4.55684311	        -22.25908450	        -12.36109435	         16.07987908	        -15.77543052	        -13.34100145	        -13.34267326	          0.27331564	          0.39800481	          0.75998226	          0.19090213	          0.75901940	          0.75981453	          0.07684059	          0.30290387	          0.28603105	          0.37215982	          0.49854288	          0.25300552	          0.50171198	          0.35109820	          0.10797002	          0.72169646	          0.42794925	          0.18578759	
